<svg xmlns="http://www.w3.org/2000/svg" viewBox="0 0 64 64">
  <defs>
    <linearGradient id="bloodDrop" x1="32" x2="32" y1="6" y2="58" gradientUnits="userSpaceOnUse">
      <stop offset="0" stop-color="#ff9b90" />
      <stop offset="0.45" stop-color="#d92d20" />
      <stop offset="1" stop-color="#7f1d1d" />
    </linearGradient>
  </defs>
  <rect width="64" height="64" rx="16" fill="#1a120f" />
  <path
    d="M32 9c-1.8 0-3.5 1-4.5 2.6-3 5.1-14.5 16.2-14.5 27.4C13 49.4 21.5 56 32 56s19-6.6 19-17c0-11.2-11.5-22.3-14.5-27.4C35.5 10 33.8 9 32 9Z"
    fill="url(#bloodDrop)"
  />
  <path
    d="M24.2 34.1c1.7-4.7 6.7-11.1 10.1-14.6.8-.8.7-2-.2-2.6-.9-.7-2.2-.5-2.9.4-4.4 5.3-9.1 11.7-10 16.1-.2 1.1.5 2.2 1.7 2.4 1 .2 1.9-.3 2.3-1.7Z"
    fill="#ffd8d2"
    opacity="0.72"
  />
</svg>
